#!OML:ASF E:\emotionWalksFemale\Project 1\Capture day 1\Session 1\Female1.ASF
:FULLY-SPECIFIED
:DEGREES
1667
root 11.0103 15.1038 17.3288 -7.54732 5.43009 366.493
lowerback 1.6852 5.34666 0.31202
upperback -5.54959 6.9621 -4.26511
thorax -6.14943 3.32407 -5.08954
lowerneck 4.29408 -10.1021 -15.3992
upperneck -1.98274 -14.1353 10.8269
head 0.586133 -7.13669 5.55656
rclavicle -3.33958e-014 -1.03368e-014
rhumerus -37.0282 -13.0419 -74.2163
rradius 30.5438
rwrist 27.3179
rhand 170.961 -230.991
rfingers 7.12502
rthumb -163.091 -260.274
lclavicle -3.33958e-014 -1.03368e-014
lhumerus -52.2013 32.7722 38.9661
lradius 30.2473
lwrist -26.7726
lhand 7.05113 -23.7581
lfingers 7.12502
lthumb 32.3244 3.38225
rfemur -16.903 -14.1985 13.9296
rtibia 73.3295
rfoot -14.5428 -20.5251
rtoes 11.6067
lfemur -0.838555 -5.59604 -36.9123
ltibia 28.8026
lfoot -19.8598 15.546
ltoes 10.3804
1668
root 11.0096 15.0975 17.4718 -7.27923 5.71343 366.316
lowerback 1.4948 5.06378 0.321546
upperback -5.57258 6.59173 -4.13082
thorax -6.10947 3.14406 -4.91546
lowerneck 4.10858 -9.95014 -15.2923
upperneck -1.76197 -13.9087 10.6767
head 0.632994 -7.02134 5.49057
rclavicle 9.74045e-015 0
rhumerus -37.8119 -13.1113 -73.3017
rradius 30.7769
rwrist 27.2721
rhand 170.503 -231.448
rfingers 7.12502
rthumb -163.532 -260.769
lclavicle 9.74045e-015 0
lhumerus -50.5368 28.1823 43.604
lradius 32.3944
lwrist -22.2092
lhand 7.27916 -21.7313
lfingers 7.12502
lthumb 32.5414 5.36453
rfemur -18.5896 -13.3562 14.4891
rtibia 71.9145
rfoot -15.6909 -21.248
rtoes 9.59754
lfemur -0.443078 -6.24794 -36.8998
ltibia 28.8192
lfoot -20.1607 16.1014
ltoes 10.4982
1669
root 11.0111 15.0987 17.6211 -6.97922 5.79735 365.872
lowerback 1.18546 4.79094 0.589333
upperback -5.64849 6.25277 -3.87839
thorax -6.03871 2.97025 -4.75454
lowerneck 4.27218 -9.74545 -15.1548
upperneck -1.93452 -13.6412 10.5126
head 0.500261 -6.88743 5.45204
rclavicle 9.14409e-015 -2.14687e-014
rhumerus -38.5393 -13.0519 -72.3893
rradius 30.912
rwrist 27.0137
rhand 170.517 -231.775
rfingers 7.12502
rthumb -163.519 -261.095
lclavicle 9.14409e-015 -2.14687e-014
lhumerus -49.8609 29.9053 43.0119
lradius 31.5584
lwrist -24.7601
lhand 7.16906 -21.8048
lfingers 7.12502
lthumb 32.4366 5.31259
rfemur -20.1591 -12.281 15.3107
rtibia 70.1033
rfoot -16.1066 -21.9123
rtoes 8.60353
lfemur -0.0698514 -7.00571 -36.643
ltibia 28.7436
lfoot -20.3168 16.9666
ltoes 8.29936
1670
root 11.011 15.1054 17.7748 -6.91987 5.8508 365.433
lowerback 1.10383 4.54957 0.868167
upperback -5.64731 5.95454 -3.62003
thorax -6.01299 2.81534 -4.61549
lowerneck 4.25212 -9.5659 -14.9505
upperneck -1.96174 -13.3848 10.2493
head 0.430384 -6.7557 5.35717
rclavicle 4.77083e-015 -3.49861e-014
rhumerus -39.2956 -13.2593 -71.3403
rradius 31.0689
rwrist 26.5928
rhand 170.691 -232.015
rfingers 7.12502
rthumb -163.351 -261.321
lclavicle 4.77083e-015 -3.49861e-014
lhumerus -49.2845 31.8637 42.2907
lradius 30.6659
lwrist -27.4077
lhand 6.58676 -22.4653
lfingers 7.12502
lthumb 31.8823 4.76419
rfemur -21.2138 -11.2203 15.9616
rtibia 67.9054
rfoot -16.5819 -22.1031
rtoes 8.03204
lfemur 0.639126 -7.71688 -36.4151
ltibia 28.5823
lfoot -20.5867 17.7676
ltoes 6.53075
1671
root 11.0028 15.1135 17.9173 -6.88043 6.19329 365.227
lowerback 1.28034 4.27072 0.837161
upperback -5.6461 5.58539 -3.47083
thorax -6.15993 2.63341 -4.44115
lowerneck 4.05379 -9.37187 -14.8352
upperneck -1.82547 -13.0961 10.2119
head 0.45646 -6.60943 5.32764
rclavicle -5.18828e-014 -5.56597e-015
rhumerus -40.1574 -13.4245 -70.3083
rradius 31.3859
rwrist 25.5316
rhand 170.801 -232.491
rfingers 7.12502
rthumb -163.245 -261.788
lclavicle -5.18828e-014 -5.56597e-015
lhumerus -47.9592 27.6153 46.2458
lradius 32.8356
lwrist -23.0658
lhand 6.15137 -20.6297
lfingers 7.12502
lthumb 31.4675 6.68158
rfemur -22.0268 -10.2371 16.3065
rtibia 65.4127
rfoot -16.9991 -23.2366
rtoes 8.02794
lfemur 1.48441 -8.32819 -36.3689
ltibia 28.3362
lfoot -21.0916 18.0637
ltoes 6.59986
